<?xml version="1.0" encoding="UTF-8"?>
<svg id="Layer_1" data-name="Layer 1" xmlns="http://www.w3.org/2000/svg" viewBox="0 0 16 16">
  <defs>
    <style>
      .cls-1 {
        fill: #a7a9f0;
      }

      .cls-2 {
        fill: #231f20;
      }
    </style>
  </defs>
  <g>
    <g>
      <path class="cls-1" d="M5.1,10.8c0-.06,0-.12-.01-.18-.04-.42-.17-.76-.39-1.04-.23-.29-.51-.46-.85-.5-.06,0-.11-.01-.17-.01h-1.38s-.1,0-.22.02c-.72.16-1.11.66-1.19,1.52-.01.08-.01.17-.01.27,0,.03,0,.05,0,.08,0,.02,0,.05,0,.07,0,.03,0,.06,0,.1.03.47.16.85.4,1.15.12.15.24.26.39.34.19.11.4.16.63.16h1.38s.08,0,.17-.02c.02,0,.03,0,.05,0,.07-.01.13-.03.19-.05.67-.22,1.01-.8,1.02-1.75h0c0-.07,0-.12,0-.16ZM4.1,10.96c0,.14-.04.25-.11.35-.04.05-.08.09-.12.11-.05.03-.11.04-.17.04h-1.38c-.12,0-.22-.05-.3-.16-.07-.09-.11-.21-.11-.35v-.03c0-.12.02-.22.07-.31.01-.02.03-.05.04-.07.08-.1.18-.16.3-.16h1.38c.06,0,.12.01.17.04.05.02.09.06.12.11.02.02.03.04.04.07.05.09.07.19.07.31v.03Z"/>
      <path class="cls-1" d="M15.11,10.8c0-.06,0-.12-.01-.18-.04-.42-.17-.76-.39-1.04-.27-.34-.61-.51-1.02-.51h-1.38s-.09,0-.17.02c-.02,0-.03,0-.05,0-.72.16-1.11.66-1.19,1.52-.01.08-.01.17-.01.27,0,.03,0,.05,0,.08,0,.02,0,.05,0,.07,0,.03,0,.06,0,.1.03.47.16.85.4,1.15.12.15.24.26.39.34.14.08.29.13.46.15.06,0,.11.01.17.01h1.38s.1,0,.22-.02c.06-.01.12-.03.18-.05.67-.22,1.01-.8,1.02-1.75h0c0-.07,0-.12,0-.16ZM14.11,10.96c0,.14-.04.25-.11.35-.08.1-.18.16-.3.16h-1.38c-.07,0-.12-.01-.17-.04-.05-.03-.09-.06-.12-.11-.07-.09-.11-.21-.11-.35v-.03c0-.12.02-.22.07-.31.01-.02.03-.05.04-.07.04-.05.08-.09.12-.11.05-.03.11-.04.17-.04h1.38c.12,0,.22.05.3.16.02.02.03.04.04.07.05.09.07.19.07.31v.03Z"/>
    </g>
    <path class="cls-1" d="M13.75,7.69s-.04,0-.05,0h-1.17c-.14-1.63-.9-2.55-2.57-2.51h-3.81c-1.67.02-2.43.88-2.57,2.51h-1.22c.12-2.48,1.72-4.46,3.65-4.46h4.08c1.93,0,3.53,1.98,3.65,4.47Z"/>
  </g>
  <g>
    <g>
      <path class="cls-2" d="M.78,9.47c-.2.34-.31.73-.34,1.19,0,.1-.01.2-.01.3,0,.51.08.95.25,1.32.03.07.07.14.11.2,0-.03,0-.06,0-.08v-2.87s0-.04,0-.05Z"/>
      <path class="cls-2" d="M4.03,10.65s-.03-.05-.04-.07c-.04-.05-.08-.09-.12-.11-.05-.03-.11-.04-.17-.04h-1.38c-.12,0-.22.05-.3.16-.02.02-.03.04-.04.07-.05.09-.07.19-.07.3h0c0,.16.04.29.11.39.08.1.18.16.3.16h1.38c.06,0,.12-.01.17-.04.05-.02.09-.06.12-.11.08-.1.11-.23.11-.38h0c0-.12-.02-.23-.07-.31ZM4.03,10.65s-.03-.05-.04-.07c-.04-.05-.08-.09-.12-.11-.05-.03-.11-.04-.17-.04h-1.38c-.12,0-.22.05-.3.16-.02.02-.03.04-.04.07-.05.09-.07.19-.07.3h0c0,.16.04.29.11.39.08.1.18.16.3.16h1.38c.06,0,.12-.01.17-.04.05-.02.09-.06.12-.11.08-.1.11-.23.11-.38h0c0-.12-.02-.23-.07-.31ZM4.03,10.65s-.03-.05-.04-.07c-.04-.05-.08-.09-.12-.11-.05-.03-.11-.04-.17-.04h-1.38c-.12,0-.22.05-.3.16-.02.02-.03.04-.04.07-.05.09-.07.19-.07.3h0c0,.16.04.29.11.39.08.1.18.16.3.16h1.38c.06,0,.12-.01.17-.04.05-.02.09-.06.12-.11.08-.1.11-.23.11-.38h0c0-.12-.02-.23-.07-.31ZM4.03,10.65s-.03-.05-.04-.07c-.04-.05-.08-.09-.12-.11-.05-.03-.11-.04-.17-.04h-1.38c-.12,0-.22.05-.3.16-.02.02-.03.04-.04.07-.05.09-.07.19-.07.3h0c0,.16.04.29.11.39.08.1.18.16.3.16h1.38c.06,0,.12-.01.17-.04.05-.02.09-.06.12-.11.08-.1.11-.23.11-.38h0c0-.12-.02-.23-.07-.31ZM4.03,10.65s-.03-.05-.04-.07c-.04-.05-.08-.09-.12-.11-.05-.03-.11-.04-.17-.04h-1.38c-.12,0-.22.05-.3.16-.02.02-.03.04-.04.07-.05.09-.07.19-.07.3h0c0,.16.04.29.11.39.08.1.18.16.3.16h1.38c.06,0,.12-.01.17-.04.05-.02.09-.06.12-.11.08-.1.11-.23.11-.38h0c0-.12-.02-.23-.07-.31ZM4.03,10.65s-.03-.05-.04-.07c-.04-.05-.08-.09-.12-.11-.05-.03-.11-.04-.17-.04h-1.38c-.12,0-.22.05-.3.16-.02.02-.03.04-.04.07-.05.09-.07.19-.07.3h0c0,.16.04.29.11.39.08.1.18.16.3.16h1.38c.06,0,.12-.01.17-.04.05-.02.09-.06.12-.11.08-.1.11-.23.11-.38h0c0-.12-.02-.23-.07-.31ZM4.03,10.65s-.03-.05-.04-.07c-.04-.05-.08-.09-.12-.11-.05-.03-.11-.04-.17-.04h-1.38c-.12,0-.22.05-.3.16-.02.02-.03.04-.04.07-.05.09-.07.19-.07.3h0c0,.16.04.29.11.39.08.1.18.16.3.16h1.38c.06,0,.12-.01.17-.04.05-.02.09-.06.12-.11.08-.1.11-.23.11-.38h0c0-.12-.02-.23-.07-.31ZM4.03,10.65s-.03-.05-.04-.07c-.04-.05-.08-.09-.12-.11-.05-.03-.11-.04-.17-.04h-1.38c-.12,0-.22.05-.3.16-.02.02-.03.04-.04.07-.05.09-.07.19-.07.3h0c0,.16.04.29.11.39.08.1.18.16.3.16h1.38c.06,0,.12-.01.17-.04.05-.02.09-.06.12-.11.08-.1.11-.23.11-.38h0c0-.12-.02-.23-.07-.31ZM5.55,10.64c-.04-.52-.18-.96-.41-1.31-.22-.32-.49-.54-.82-.68-.11-.04-.22-.08-.34-.1-.04,0-.09-.01-.12-.02-.09-.01-.15-.02-.17-.02h-1.38c-.14,0-.28.01-.4.05-.36.09-.67.3-.94.64-.07.08-.13.18-.18.27h0c-.2.34-.31.74-.34,1.19,0,.1-.01.2-.01.3,0,.51.08.95.25,1.32.03.07.07.14.11.2.02.04.05.08.07.11.28.42.67.68,1.16.78.16.02.26.04.29.04h1.38c.06,0,.12,0,.17,0,.46-.04.85-.27,1.17-.68.02-.03.04-.06.06-.09,0,0,.01-.01.01-.02.15-.22.27-.46.34-.73.06-.22.1-.45.11-.71,0-.07,0-.15,0-.22,0-.11,0-.22-.01-.32ZM4.09,12.74c-.06.02-.12.04-.19.05-.02,0-.03,0-.05,0-.09.01-.15.02-.17.02h-1.38c-.23,0-.44-.05-.63-.16-.14-.08-.27-.2-.39-.34-.24-.3-.37-.7-.4-1.18,0-.03,0-.06,0-.1,0-.02,0-.05,0-.07,0-.03,0-.05,0-.08,0-.08,0-.16.01-.23.07-.85.47-1.36,1.19-1.52.12-.01.19-.02.22-.02h1.38c.06,0,.12,0,.17.01.33.04.62.21.85.5.22.27.35.62.39,1.04,0,.05,0,.09.01.14,0,.05,0,.1,0,.15h0c0,.98-.34,1.57-1.02,1.79ZM3.98,10.58s-.08-.09-.12-.11c-.05-.03-.11-.04-.17-.04h-1.38c-.12,0-.22.05-.3.16-.02.02-.03.04-.04.07-.05.09-.07.19-.07.3h0c0,.16.04.29.11.39.08.1.18.16.3.16h1.38c.06,0,.12-.01.17-.04.05-.02.09-.06.12-.11.08-.1.11-.23.11-.38h0c0-.12-.02-.23-.07-.31-.01-.02-.03-.05-.04-.07ZM4.03,10.65s-.03-.05-.04-.07c-.04-.05-.08-.09-.12-.11-.05-.03-.11-.04-.17-.04h-1.38c-.12,0-.22.05-.3.16-.02.02-.03.04-.04.07-.05.09-.07.19-.07.3h0c0,.16.04.29.11.39.08.1.18.16.3.16h1.38c.06,0,.12-.01.17-.04.05-.02.09-.06.12-.11.08-.1.11-.23.11-.38h0c0-.12-.02-.23-.07-.31ZM4.03,10.65s-.03-.05-.04-.07c-.04-.05-.08-.09-.12-.11-.05-.03-.11-.04-.17-.04h-1.38c-.12,0-.22.05-.3.16-.02.02-.03.04-.04.07-.05.09-.07.19-.07.3h0c0,.16.04.29.11.39.08.1.18.16.3.16h1.38c.06,0,.12-.01.17-.04.05-.02.09-.06.12-.11.08-.1.11-.23.11-.38h0c0-.12-.02-.23-.07-.31ZM4.03,10.65s-.03-.05-.04-.07c-.04-.05-.08-.09-.12-.11-.05-.03-.11-.04-.17-.04h-1.38c-.12,0-.22.05-.3.16-.02.02-.03.04-.04.07-.05.09-.07.19-.07.3h0c0,.16.04.29.11.39.08.1.18.16.3.16h1.38c.06,0,.12-.01.17-.04.05-.02.09-.06.12-.11.08-.1.11-.23.11-.38h0c0-.12-.02-.23-.07-.31ZM4.03,10.65s-.03-.05-.04-.07c-.04-.05-.08-.09-.12-.11-.05-.03-.11-.04-.17-.04h-1.38c-.12,0-.22.05-.3.16-.02.02-.03.04-.04.07-.05.09-.07.19-.07.3h0c0,.16.04.29.11.39.08.1.18.16.3.16h1.38c.06,0,.12-.01.17-.04.05-.02.09-.06.12-.11.08-.1.11-.23.11-.38h0c0-.12-.02-.23-.07-.31ZM4.03,10.65s-.03-.05-.04-.07c-.04-.05-.08-.09-.12-.11-.05-.03-.11-.04-.17-.04h-1.38c-.12,0-.22.05-.3.16-.02.02-.03.04-.04.07-.05.09-.07.19-.07.3h0c0,.16.04.29.11.39.08.1.18.16.3.16h1.38c.06,0,.12-.01.17-.04.05-.02.09-.06.12-.11.08-.1.11-.23.11-.38h0c0-.12-.02-.23-.07-.31ZM4.03,10.65s-.03-.05-.04-.07c-.04-.05-.08-.09-.12-.11-.05-.03-.11-.04-.17-.04h-1.38c-.12,0-.22.05-.3.16-.02.02-.03.04-.04.07-.05.09-.07.19-.07.3h0c0,.16.04.29.11.39.08.1.18.16.3.16h1.38c.06,0,.12-.01.17-.04.05-.02.09-.06.12-.11.08-.1.11-.23.11-.38h0c0-.12-.02-.23-.07-.31Z"/>
      <path class="cls-2" d="M5.25,12.16c-.07.14-.12.29-.14.46.15-.22.27-.46.34-.73-.08.07-.14.16-.2.27ZM10.65,10.28c-.02-.11-.04-.22-.08-.32-.07.22-.11.45-.13.7,0,.08-.01.16-.01.25,0,.02,0,.03,0,.05,0,.18.01.36.03.52.01-.02.02-.04.03-.06.02-.04.04-.08.05-.13.08-.21.12-.44.12-.7,0-.11,0-.21-.02-.31Z"/>
      <path class="cls-2" d="M14.04,10.65s-.03-.05-.04-.07c-.08-.1-.18-.16-.3-.16h-1.38c-.07,0-.12.01-.17.04-.05.03-.09.06-.12.11-.02.02-.03.04-.04.07-.05.09-.07.19-.07.3h0c0,.16.04.29.11.39.04.05.08.09.12.11.05.03.11.04.17.04h1.38c.12,0,.22-.05.3-.16.08-.1.11-.23.11-.38h0c0-.12-.02-.23-.07-.31ZM14.04,10.65s-.03-.05-.04-.07c-.08-.1-.18-.16-.3-.16h-1.38c-.07,0-.12.01-.17.04-.05.03-.09.06-.12.11-.02.02-.03.04-.04.07-.05.09-.07.19-.07.3h0c0,.16.04.29.11.39.04.05.08.09.12.11.05.03.11.04.17.04h1.38c.12,0,.22-.05.3-.16.08-.1.11-.23.11-.38h0c0-.12-.02-.23-.07-.31ZM14.04,10.65s-.03-.05-.04-.07c-.08-.1-.18-.16-.3-.16h-1.38c-.07,0-.12.01-.17.04-.05.03-.09.06-.12.11-.02.02-.03.04-.04.07-.05.09-.07.19-.07.3h0c0,.16.04.29.11.39.04.05.08.09.12.11.05.03.11.04.17.04h1.38c.12,0,.22-.05.3-.16.08-.1.11-.23.11-.38h0c0-.12-.02-.23-.07-.31ZM14.04,10.65s-.03-.05-.04-.07c-.08-.1-.18-.16-.3-.16h-1.38c-.07,0-.12.01-.17.04-.05.03-.09.06-.12.11-.02.02-.03.04-.04.07-.05.09-.07.19-.07.3h0c0,.16.04.29.11.39.04.05.08.09.12.11.05.03.11.04.17.04h1.38c.12,0,.22-.05.3-.16.08-.1.11-.23.11-.38h0c0-.12-.02-.23-.07-.31ZM14.04,10.65s-.03-.05-.04-.07c-.08-.1-.18-.16-.3-.16h-1.38c-.07,0-.12.01-.17.04-.05.03-.09.06-.12.11-.02.02-.03.04-.04.07-.05.09-.07.19-.07.3h0c0,.16.04.29.11.39.04.05.08.09.12.11.05.03.11.04.17.04h1.38c.12,0,.22-.05.3-.16.08-.1.11-.23.11-.38h0c0-.12-.02-.23-.07-.31ZM14.04,10.65s-.03-.05-.04-.07c-.08-.1-.18-.16-.3-.16h-1.38c-.07,0-.12.01-.17.04-.05.03-.09.06-.12.11-.02.02-.03.04-.04.07-.05.09-.07.19-.07.3h0c0,.16.04.29.11.39.04.05.08.09.12.11.05.03.11.04.17.04h1.38c.12,0,.22-.05.3-.16.08-.1.11-.23.11-.38h0c0-.12-.02-.23-.07-.31ZM14.04,10.65s-.03-.05-.04-.07c-.08-.1-.18-.16-.3-.16h-1.38c-.07,0-.12.01-.17.04-.05.03-.09.06-.12.11-.02.02-.03.04-.04.07-.05.09-.07.19-.07.3h0c0,.16.04.29.11.39.04.05.08.09.12.11.05.03.11.04.17.04h1.38c.12,0,.22-.05.3-.16.08-.1.11-.23.11-.38h0c0-.12-.02-.23-.07-.31ZM14.04,10.65s-.03-.05-.04-.07c-.08-.1-.18-.16-.3-.16h-1.38c-.07,0-.12.01-.17.04-.05.03-.09.06-.12.11-.02.02-.03.04-.04.07-.05.09-.07.19-.07.3h0c0,.16.04.29.11.39.04.05.08.09.12.11.05.03.11.04.17.04h1.38c.12,0,.22-.05.3-.16.08-.1.11-.23.11-.38h0c0-.12-.02-.23-.07-.31ZM15.56,10.64c-.04-.52-.18-.96-.41-1.31-.22-.32-.49-.54-.82-.68-.11-.04-.22-.08-.34-.1-.16-.02-.26-.04-.29-.04h-1.38c-.06,0-.12,0-.17,0-.08,0-.15.02-.23.04-.36.09-.67.3-.94.64-.13.16-.23.34-.31.53-.03.07-.06.15-.08.23-.07.22-.11.45-.13.7,0,.08-.01.16-.01.25,0,.02,0,.03,0,.05,0,.18.01.36.03.52.06.44.19.81.4,1.11.28.42.67.68,1.16.78.04,0,.09.01.12.02.09.01.15.02.17.02h1.38c.53,0,.98-.23,1.34-.69.36-.46.54-1.05.54-1.77,0-.11,0-.22-.01-.32ZM15.12,10.96c0,.96-.34,1.56-1.02,1.78-.06.02-.12.04-.18.05-.12.01-.19.02-.22.02h-1.38c-.06,0-.12,0-.17-.01-.17-.02-.32-.07-.46-.15-.14-.08-.27-.2-.39-.34-.24-.3-.37-.7-.4-1.18,0-.03,0-.06,0-.1,0-.02,0-.05,0-.07,0-.03,0-.05,0-.08,0-.08,0-.16.01-.23.07-.85.47-1.36,1.19-1.52.02,0,.03,0,.05,0,.09-.01.15-.02.17-.02h1.38c.41,0,.75.17,1.02.51.22.27.35.62.39,1.04,0,.05,0,.09.01.14,0,.05,0,.1,0,.15h0ZM13.99,10.58c-.08-.1-.18-.16-.3-.16h-1.38c-.07,0-.12.01-.17.04-.05.03-.09.06-.12.11-.02.02-.03.04-.04.07-.05.09-.07.19-.07.3h0c0,.16.04.29.11.39.04.05.08.09.12.11.05.03.11.04.17.04h1.38c.12,0,.22-.05.3-.16.08-.1.11-.23.11-.38h0c0-.12-.02-.23-.07-.31-.01-.02-.03-.05-.04-.07ZM14.04,10.65s-.03-.05-.04-.07c-.08-.1-.18-.16-.3-.16h-1.38c-.07,0-.12.01-.17.04-.05.03-.09.06-.12.11-.02.02-.03.04-.04.07-.05.09-.07.19-.07.3h0c0,.16.04.29.11.39.04.05.08.09.12.11.05.03.11.04.17.04h1.38c.12,0,.22-.05.3-.16.08-.1.11-.23.11-.38h0c0-.12-.02-.23-.07-.31ZM14.04,10.65s-.03-.05-.04-.07c-.08-.1-.18-.16-.3-.16h-1.38c-.07,0-.12.01-.17.04-.05.03-.09.06-.12.11-.02.02-.03.04-.04.07-.05.09-.07.19-.07.3h0c0,.16.04.29.11.39.04.05.08.09.12.11.05.03.11.04.17.04h1.38c.12,0,.22-.05.3-.16.08-.1.11-.23.11-.38h0c0-.12-.02-.23-.07-.31ZM14.04,10.65s-.03-.05-.04-.07c-.08-.1-.18-.16-.3-.16h-1.38c-.07,0-.12.01-.17.04-.05.03-.09.06-.12.11-.02.02-.03.04-.04.07-.05.09-.07.19-.07.3h0c0,.16.04.29.11.39.04.05.08.09.12.11.05.03.11.04.17.04h1.38c.12,0,.22-.05.3-.16.08-.1.11-.23.11-.38h0c0-.12-.02-.23-.07-.31ZM14.04,10.65s-.03-.05-.04-.07c-.08-.1-.18-.16-.3-.16h-1.38c-.07,0-.12.01-.17.04-.05.03-.09.06-.12.11-.02.02-.03.04-.04.07-.05.09-.07.19-.07.3h0c0,.16.04.29.11.39.04.05.08.09.12.11.05.03.11.04.17.04h1.38c.12,0,.22-.05.3-.16.08-.1.11-.23.11-.38h0c0-.12-.02-.23-.07-.31ZM14.04,10.65s-.03-.05-.04-.07c-.08-.1-.18-.16-.3-.16h-1.38c-.07,0-.12.01-.17.04-.05.03-.09.06-.12.11-.02.02-.03.04-.04.07-.05.09-.07.19-.07.3h0c0,.16.04.29.11.39.04.05.08.09.12.11.05.03.11.04.17.04h1.38c.12,0,.22-.05.3-.16.08-.1.11-.23.11-.38h0c0-.12-.02-.23-.07-.31ZM14.04,10.65s-.03-.05-.04-.07c-.08-.1-.18-.16-.3-.16h-1.38c-.07,0-.12.01-.17.04-.05.03-.09.06-.12.11-.02.02-.03.04-.04.07-.05.09-.07.19-.07.3h0c0,.16.04.29.11.39.04.05.08.09.12.11.05.03.11.04.17.04h1.38c.12,0,.22-.05.3-.16.08-.1.11-.23.11-.38h0c0-.12-.02-.23-.07-.31Z"/>
    </g>
    <path class="cls-2" d="M14.26,7.83c-.08-2.91-1.92-5.24-4.17-5.24h-4.08C3.78,2.59,1.95,4.9,1.85,7.78c0,.08,0,.16,0,.24v.39c.08-.03.16-.05.24-.07.12-.01.19-.02.22-.02h1.38c.06,0,.12,0,.17.01.08,0,.15.02.22.05v-.32c0-.1,0-.19.01-.28.12-1.4,1.16-1.91,2.06-1.91h3.81c.89,0,1.92.5,2.06,1.87.01.1.02.21.02.32v.29s.04-.01.07-.02c.02,0,.03,0,.05,0,.09-.01.15-.02.17-.02h1.38s.04,0,.06,0c.18,0,.35.05.51.13v-.42c0-.06,0-.13,0-.19ZM13.69,7.71h-1.17c-.14-1.63-.9-2.55-2.57-2.51h-3.81c-1.67.02-2.43.88-2.57,2.51h-1.22s0-.02,0-.03c.13-2.47,1.72-4.43,3.65-4.43h4.08c1.92,0,3.52,1.96,3.65,4.43,0,.01,0,.02,0,.03-.02,0-.04,0-.05,0Z"/>
  </g>
</svg>