<?xml version="1.0" encoding="UTF-8"?>
<svg id="Layer_1" data-name="Layer 1" xmlns="http://www.w3.org/2000/svg" viewBox="0 0 16 16">
  <defs>
    <style>
      .cls-1 {
        fill: #a7a9f0;
      }

      .cls-2 {
        fill: #231f20;
      }
    </style>
  </defs>
  <g>
    <g>
      <path class="cls-1" d="M5.1,10.14s0-.09-.01-.14c-.04-.32-.17-.59-.39-.8-.23-.22-.51-.35-.85-.38-.06,0-.11,0-.17,0h-1.38s-.1,0-.22.02c-.72.12-1.11.51-1.19,1.16-.01.07-.01.13-.01.21,0,.02,0,.04,0,.06,0,.02,0,.04,0,.05,0,.03,0,.05,0,.08.03.36.16.65.4.88.12.11.24.2.39.26.19.08.4.13.63.13h1.38s.08,0,.17-.01c.02,0,.03,0,.05,0,.07-.01.13-.02.19-.04.67-.17,1.01-.62,1.02-1.34h0c0-.05,0-.09,0-.13ZM4.1,10.27c0,.11-.04.2-.11.27-.04.04-.08.07-.12.09-.05.02-.11.03-.17.03h-1.38c-.12,0-.22-.04-.3-.12-.07-.07-.11-.16-.11-.27v-.03c0-.09.02-.17.07-.24.01-.02.03-.04.04-.05.08-.08.18-.12.3-.12h1.38c.06,0,.12.01.17.03.05.02.09.05.12.09.02.02.03.03.04.05.05.07.07.15.07.24v.03Z"/>
      <path class="cls-1" d="M15.11,10.14s0-.09-.01-.14c-.04-.32-.17-.59-.39-.8-.27-.26-.61-.39-1.02-.39h-1.38s-.09,0-.17.01c-.02,0-.03,0-.05,0-.72.12-1.11.51-1.19,1.16-.01.07-.01.13-.01.21,0,.02,0,.04,0,.06,0,.02,0,.04,0,.05,0,.03,0,.05,0,.08.03.36.16.65.4.88.12.11.24.2.39.26.14.06.29.1.46.12.06,0,.11,0,.17,0h1.38s.1,0,.22-.02c.06-.01.12-.02.18-.04.67-.17,1.01-.62,1.02-1.34h0c0-.05,0-.09,0-.13ZM14.11,10.27c0,.11-.04.2-.11.27-.08.08-.18.12-.3.12h-1.38c-.07,0-.12-.01-.17-.03-.05-.02-.09-.05-.12-.09-.07-.07-.11-.16-.11-.27v-.03c0-.09.02-.17.07-.24.01-.02.03-.04.04-.05.04-.04.08-.07.12-.09.05-.02.11-.03.17-.03h1.38c.12,0,.22.04.3.12.02.02.03.03.04.05.05.07.07.15.07.24v.03Z"/>
    </g>
    <path class="cls-1" d="M13.75,7.76s-.04,0-.05,0h-1.17c-.14-1.25-.9-1.96-2.57-1.93h-3.81c-1.67.02-2.43.67-2.57,1.93h-1.22c.12-1.9,1.72-3.42,3.65-3.42h4.08c1.93,0,3.53,1.52,3.65,3.43Z"/>
  </g>
  <g>
    <g>
      <path class="cls-2" d="M.78,9.13c-.2.26-.31.56-.34.91,0,.08-.01.15-.01.23,0,.39.08.73.25,1.01.03.05.07.11.11.16,0-.02,0-.04,0-.07v-2.2s0-.03,0-.04Z"/>
      <path class="cls-2" d="M4.03,10.03s-.03-.04-.04-.05c-.04-.04-.08-.07-.12-.09-.05-.02-.11-.03-.17-.03h-1.38c-.12,0-.22.04-.3.12-.02.02-.03.03-.04.05-.05.07-.07.14-.07.23h0c0,.12.04.22.11.3.08.08.18.12.3.12h1.38c.06,0,.12-.01.17-.03.05-.02.09-.05.12-.09.08-.08.11-.18.11-.29h0c0-.1-.02-.17-.07-.24ZM4.03,10.03s-.03-.04-.04-.05c-.04-.04-.08-.07-.12-.09-.05-.02-.11-.03-.17-.03h-1.38c-.12,0-.22.04-.3.12-.02.02-.03.03-.04.05-.05.07-.07.14-.07.23h0c0,.12.04.22.11.3.08.08.18.12.3.12h1.38c.06,0,.12-.01.17-.03.05-.02.09-.05.12-.09.08-.08.11-.18.11-.29h0c0-.1-.02-.17-.07-.24ZM4.03,10.03s-.03-.04-.04-.05c-.04-.04-.08-.07-.12-.09-.05-.02-.11-.03-.17-.03h-1.38c-.12,0-.22.04-.3.12-.02.02-.03.03-.04.05-.05.07-.07.14-.07.23h0c0,.12.04.22.11.3.08.08.18.12.3.12h1.38c.06,0,.12-.01.17-.03.05-.02.09-.05.12-.09.08-.08.11-.18.11-.29h0c0-.1-.02-.17-.07-.24ZM4.03,10.03s-.03-.04-.04-.05c-.04-.04-.08-.07-.12-.09-.05-.02-.11-.03-.17-.03h-1.38c-.12,0-.22.04-.3.12-.02.02-.03.03-.04.05-.05.07-.07.14-.07.23h0c0,.12.04.22.11.3.08.08.18.12.3.12h1.38c.06,0,.12-.01.17-.03.05-.02.09-.05.12-.09.08-.08.11-.18.11-.29h0c0-.1-.02-.17-.07-.24ZM4.03,10.03s-.03-.04-.04-.05c-.04-.04-.08-.07-.12-.09-.05-.02-.11-.03-.17-.03h-1.38c-.12,0-.22.04-.3.12-.02.02-.03.03-.04.05-.05.07-.07.14-.07.23h0c0,.12.04.22.11.3.08.08.18.12.3.12h1.38c.06,0,.12-.01.17-.03.05-.02.09-.05.12-.09.08-.08.11-.18.11-.29h0c0-.1-.02-.17-.07-.24ZM4.03,10.03s-.03-.04-.04-.05c-.04-.04-.08-.07-.12-.09-.05-.02-.11-.03-.17-.03h-1.38c-.12,0-.22.04-.3.12-.02.02-.03.03-.04.05-.05.07-.07.14-.07.23h0c0,.12.04.22.11.3.08.08.18.12.3.12h1.38c.06,0,.12-.01.17-.03.05-.02.09-.05.12-.09.08-.08.11-.18.11-.29h0c0-.1-.02-.17-.07-.24ZM4.03,10.03s-.03-.04-.04-.05c-.04-.04-.08-.07-.12-.09-.05-.02-.11-.03-.17-.03h-1.38c-.12,0-.22.04-.3.12-.02.02-.03.03-.04.05-.05.07-.07.14-.07.23h0c0,.12.04.22.11.3.08.08.18.12.3.12h1.38c.06,0,.12-.01.17-.03.05-.02.09-.05.12-.09.08-.08.11-.18.11-.29h0c0-.1-.02-.17-.07-.24ZM4.03,10.03s-.03-.04-.04-.05c-.04-.04-.08-.07-.12-.09-.05-.02-.11-.03-.17-.03h-1.38c-.12,0-.22.04-.3.12-.02.02-.03.03-.04.05-.05.07-.07.14-.07.23h0c0,.12.04.22.11.3.08.08.18.12.3.12h1.38c.06,0,.12-.01.17-.03.05-.02.09-.05.12-.09.08-.08.11-.18.11-.29h0c0-.1-.02-.17-.07-.24ZM5.55,10.02c-.04-.4-.18-.74-.41-1.01-.22-.24-.49-.42-.82-.52-.11-.03-.22-.06-.34-.08-.04,0-.09-.01-.12-.01-.09,0-.15-.01-.17-.01h-1.38c-.14,0-.28.01-.4.04-.36.07-.67.23-.94.49-.07.07-.13.14-.18.21h0c-.2.26-.31.57-.34.91,0,.08-.01.15-.01.23,0,.39.08.73.25,1.01.03.05.07.11.11.16.02.03.05.06.07.09.28.32.67.52,1.16.6.16.02.26.03.29.03h1.38c.06,0,.12,0,.17,0,.46-.03.85-.21,1.17-.52.02-.02.04-.04.06-.07,0,0,.01-.01.01-.02.15-.17.27-.35.34-.56.06-.17.1-.35.11-.54,0-.06,0-.11,0-.17,0-.09,0-.17-.01-.25ZM4.09,11.64c-.06.02-.12.03-.19.04-.02,0-.03,0-.05,0-.09,0-.15.01-.17.01h-1.38c-.23,0-.44-.04-.63-.13-.14-.06-.27-.15-.39-.26-.24-.23-.37-.53-.4-.9,0-.03,0-.05,0-.08,0-.02,0-.04,0-.05,0-.02,0-.04,0-.06,0-.06,0-.12.01-.18.07-.65.47-1.04,1.19-1.16.12-.01.19-.02.22-.02h1.38c.06,0,.12,0,.17,0,.33.03.62.16.85.38.22.21.35.48.39.8,0,.04,0,.07.01.11,0,.04,0,.08,0,.11h0c0,.75-.34,1.2-1.02,1.38ZM3.98,9.98s-.08-.07-.12-.09c-.05-.02-.11-.03-.17-.03h-1.38c-.12,0-.22.04-.3.12-.02.02-.03.03-.04.05-.05.07-.07.14-.07.23h0c0,.12.04.22.11.3.08.08.18.12.3.12h1.38c.06,0,.12-.01.17-.03.05-.02.09-.05.12-.09.08-.08.11-.18.11-.29h0c0-.1-.02-.17-.07-.24-.01-.02-.03-.04-.04-.05ZM4.03,10.03s-.03-.04-.04-.05c-.04-.04-.08-.07-.12-.09-.05-.02-.11-.03-.17-.03h-1.38c-.12,0-.22.04-.3.12-.02.02-.03.03-.04.05-.05.07-.07.14-.07.23h0c0,.12.04.22.11.3.08.08.18.12.3.12h1.38c.06,0,.12-.01.17-.03.05-.02.09-.05.12-.09.08-.08.11-.18.11-.29h0c0-.1-.02-.17-.07-.24ZM4.03,10.03s-.03-.04-.04-.05c-.04-.04-.08-.07-.12-.09-.05-.02-.11-.03-.17-.03h-1.38c-.12,0-.22.04-.3.12-.02.02-.03.03-.04.05-.05.07-.07.14-.07.23h0c0,.12.04.22.11.3.08.08.18.12.3.12h1.38c.06,0,.12-.01.17-.03.05-.02.09-.05.12-.09.08-.08.11-.18.11-.29h0c0-.1-.02-.17-.07-.24ZM4.03,10.03s-.03-.04-.04-.05c-.04-.04-.08-.07-.12-.09-.05-.02-.11-.03-.17-.03h-1.38c-.12,0-.22.04-.3.12-.02.02-.03.03-.04.05-.05.07-.07.14-.07.23h0c0,.12.04.22.11.3.08.08.18.12.3.12h1.38c.06,0,.12-.01.17-.03.05-.02.09-.05.12-.09.08-.08.11-.18.11-.29h0c0-.1-.02-.17-.07-.24ZM4.03,10.03s-.03-.04-.04-.05c-.04-.04-.08-.07-.12-.09-.05-.02-.11-.03-.17-.03h-1.38c-.12,0-.22.04-.3.12-.02.02-.03.03-.04.05-.05.07-.07.14-.07.23h0c0,.12.04.22.11.3.08.08.18.12.3.12h1.38c.06,0,.12-.01.17-.03.05-.02.09-.05.12-.09.08-.08.11-.18.11-.29h0c0-.1-.02-.17-.07-.24ZM4.03,10.03s-.03-.04-.04-.05c-.04-.04-.08-.07-.12-.09-.05-.02-.11-.03-.17-.03h-1.38c-.12,0-.22.04-.3.12-.02.02-.03.03-.04.05-.05.07-.07.14-.07.23h0c0,.12.04.22.11.3.08.08.18.12.3.12h1.38c.06,0,.12-.01.17-.03.05-.02.09-.05.12-.09.08-.08.11-.18.11-.29h0c0-.1-.02-.17-.07-.24ZM4.03,10.03s-.03-.04-.04-.05c-.04-.04-.08-.07-.12-.09-.05-.02-.11-.03-.17-.03h-1.38c-.12,0-.22.04-.3.12-.02.02-.03.03-.04.05-.05.07-.07.14-.07.23h0c0,.12.04.22.11.3.08.08.18.12.3.12h1.38c.06,0,.12-.01.17-.03.05-.02.09-.05.12-.09.08-.08.11-.18.11-.29h0c0-.1-.02-.17-.07-.24Z"/>
      <path class="cls-2" d="M5.25,11.19c-.07.11-.12.22-.14.35.15-.17.27-.35.34-.56-.08.05-.14.12-.2.21ZM10.65,9.75c-.02-.09-.04-.17-.08-.25-.07.17-.11.34-.13.54,0,.06-.01.13-.01.19,0,.01,0,.03,0,.04,0,.14.01.27.03.4.01-.02.02-.03.03-.05.02-.03.04-.07.05-.1.08-.16.12-.34.12-.54,0-.08,0-.16-.02-.24Z"/>
      <path class="cls-2" d="M14.04,10.03s-.03-.04-.04-.05c-.08-.08-.18-.12-.3-.12h-1.38c-.07,0-.12.01-.17.03-.05.02-.09.05-.12.09-.02.02-.03.03-.04.05-.05.07-.07.14-.07.23h0c0,.12.04.22.11.3.04.04.08.07.12.09.05.02.11.03.17.03h1.38c.12,0,.22-.04.3-.12.08-.08.11-.18.11-.29h0c0-.1-.02-.17-.07-.24ZM14.04,10.03s-.03-.04-.04-.05c-.08-.08-.18-.12-.3-.12h-1.38c-.07,0-.12.01-.17.03-.05.02-.09.05-.12.09-.02.02-.03.03-.04.05-.05.07-.07.14-.07.23h0c0,.12.04.22.11.3.04.04.08.07.12.09.05.02.11.03.17.03h1.38c.12,0,.22-.04.3-.12.08-.08.11-.18.11-.29h0c0-.1-.02-.17-.07-.24ZM14.04,10.03s-.03-.04-.04-.05c-.08-.08-.18-.12-.3-.12h-1.38c-.07,0-.12.01-.17.03-.05.02-.09.05-.12.09-.02.02-.03.03-.04.05-.05.07-.07.14-.07.23h0c0,.12.04.22.11.3.04.04.08.07.12.09.05.02.11.03.17.03h1.38c.12,0,.22-.04.3-.12.08-.08.11-.18.11-.29h0c0-.1-.02-.17-.07-.24ZM14.04,10.03s-.03-.04-.04-.05c-.08-.08-.18-.12-.3-.12h-1.38c-.07,0-.12.01-.17.03-.05.02-.09.05-.12.09-.02.02-.03.03-.04.05-.05.07-.07.14-.07.23h0c0,.12.04.22.11.3.04.04.08.07.12.09.05.02.11.03.17.03h1.38c.12,0,.22-.04.3-.12.08-.08.11-.18.11-.29h0c0-.1-.02-.17-.07-.24ZM14.04,10.03s-.03-.04-.04-.05c-.08-.08-.18-.12-.3-.12h-1.38c-.07,0-.12.01-.17.03-.05.02-.09.05-.12.09-.02.02-.03.03-.04.05-.05.07-.07.14-.07.23h0c0,.12.04.22.11.3.04.04.08.07.12.09.05.02.11.03.17.03h1.38c.12,0,.22-.04.3-.12.08-.08.11-.18.11-.29h0c0-.1-.02-.17-.07-.24ZM14.04,10.03s-.03-.04-.04-.05c-.08-.08-.18-.12-.3-.12h-1.38c-.07,0-.12.01-.17.03-.05.02-.09.05-.12.09-.02.02-.03.03-.04.05-.05.07-.07.14-.07.23h0c0,.12.04.22.11.3.04.04.08.07.12.09.05.02.11.03.17.03h1.38c.12,0,.22-.04.3-.12.08-.08.11-.18.11-.29h0c0-.1-.02-.17-.07-.24ZM14.04,10.03s-.03-.04-.04-.05c-.08-.08-.18-.12-.3-.12h-1.38c-.07,0-.12.01-.17.03-.05.02-.09.05-.12.09-.02.02-.03.03-.04.05-.05.07-.07.14-.07.23h0c0,.12.04.22.11.3.04.04.08.07.12.09.05.02.11.03.17.03h1.38c.12,0,.22-.04.3-.12.08-.08.11-.18.11-.29h0c0-.1-.02-.17-.07-.24ZM14.04,10.03s-.03-.04-.04-.05c-.08-.08-.18-.12-.3-.12h-1.38c-.07,0-.12.01-.17.03-.05.02-.09.05-.12.09-.02.02-.03.03-.04.05-.05.07-.07.14-.07.23h0c0,.12.04.22.11.3.04.04.08.07.12.09.05.02.11.03.17.03h1.38c.12,0,.22-.04.3-.12.08-.08.11-.18.11-.29h0c0-.1-.02-.17-.07-.24ZM15.56,10.02c-.04-.4-.18-.74-.41-1.01-.22-.24-.49-.42-.82-.52-.11-.03-.22-.06-.34-.08-.16-.02-.26-.03-.29-.03h-1.38c-.06,0-.12,0-.17,0-.08,0-.15.02-.23.03-.36.07-.67.23-.94.49-.13.12-.23.26-.31.41-.03.06-.06.12-.08.18-.07.17-.11.34-.13.54,0,.06-.01.13-.01.19,0,.01,0,.03,0,.04,0,.14.01.27.03.4.06.34.19.62.4.85.28.32.67.52,1.16.6.04,0,.09.01.12.01.09,0,.15.01.17.01h1.38c.53,0,.98-.18,1.34-.53.36-.35.54-.8.54-1.35,0-.09,0-.17-.01-.25ZM15.12,10.27c0,.74-.34,1.19-1.02,1.37-.06.02-.12.03-.18.04-.12.01-.19.02-.22.02h-1.38c-.06,0-.12,0-.17,0-.17-.02-.32-.05-.46-.12-.14-.06-.27-.15-.39-.26-.24-.23-.37-.53-.4-.9,0-.03,0-.05,0-.08,0-.02,0-.04,0-.05,0-.02,0-.04,0-.06,0-.06,0-.12.01-.18.07-.65.47-1.04,1.19-1.16.02,0,.03,0,.05,0,.09,0,.15-.01.17-.01h1.38c.41,0,.75.13,1.02.39.22.21.35.48.39.8,0,.04,0,.07.01.11,0,.04,0,.08,0,.11h0ZM13.99,9.98c-.08-.08-.18-.12-.3-.12h-1.38c-.07,0-.12.01-.17.03-.05.02-.09.05-.12.09-.02.02-.03.03-.04.05-.05.07-.07.14-.07.23h0c0,.12.04.22.11.3.04.04.08.07.12.09.05.02.11.03.17.03h1.38c.12,0,.22-.04.3-.12.08-.08.11-.18.11-.29h0c0-.1-.02-.17-.07-.24-.01-.02-.03-.04-.04-.05ZM14.04,10.03s-.03-.04-.04-.05c-.08-.08-.18-.12-.3-.12h-1.38c-.07,0-.12.01-.17.03-.05.02-.09.05-.12.09-.02.02-.03.03-.04.05-.05.07-.07.14-.07.23h0c0,.12.04.22.11.3.04.04.08.07.12.09.05.02.11.03.17.03h1.38c.12,0,.22-.04.3-.12.08-.08.11-.18.11-.29h0c0-.1-.02-.17-.07-.24ZM14.04,10.03s-.03-.04-.04-.05c-.08-.08-.18-.12-.3-.12h-1.38c-.07,0-.12.01-.17.03-.05.02-.09.05-.12.09-.02.02-.03.03-.04.05-.05.07-.07.14-.07.23h0c0,.12.04.22.11.3.04.04.08.07.12.09.05.02.11.03.17.03h1.38c.12,0,.22-.04.3-.12.08-.08.11-.18.11-.29h0c0-.1-.02-.17-.07-.24ZM14.04,10.03s-.03-.04-.04-.05c-.08-.08-.18-.12-.3-.12h-1.38c-.07,0-.12.01-.17.03-.05.02-.09.05-.12.09-.02.02-.03.03-.04.05-.05.07-.07.14-.07.23h0c0,.12.04.22.11.3.04.04.08.07.12.09.05.02.11.03.17.03h1.38c.12,0,.22-.04.3-.12.08-.08.11-.18.11-.29h0c0-.1-.02-.17-.07-.24ZM14.04,10.03s-.03-.04-.04-.05c-.08-.08-.18-.12-.3-.12h-1.38c-.07,0-.12.01-.17.03-.05.02-.09.05-.12.09-.02.02-.03.03-.04.05-.05.07-.07.14-.07.23h0c0,.12.04.22.11.3.04.04.08.07.12.09.05.02.11.03.17.03h1.38c.12,0,.22-.04.3-.12.08-.08.11-.18.11-.29h0c0-.1-.02-.17-.07-.24ZM14.04,10.03s-.03-.04-.04-.05c-.08-.08-.18-.12-.3-.12h-1.38c-.07,0-.12.01-.17.03-.05.02-.09.05-.12.09-.02.02-.03.03-.04.05-.05.07-.07.14-.07.23h0c0,.12.04.22.11.3.04.04.08.07.12.09.05.02.11.03.17.03h1.38c.12,0,.22-.04.3-.12.08-.08.11-.18.11-.29h0c0-.1-.02-.17-.07-.24ZM14.04,10.03s-.03-.04-.04-.05c-.08-.08-.18-.12-.3-.12h-1.38c-.07,0-.12.01-.17.03-.05.02-.09.05-.12.09-.02.02-.03.03-.04.05-.05.07-.07.14-.07.23h0c0,.12.04.22.11.3.04.04.08.07.12.09.05.02.11.03.17.03h1.38c.12,0,.22-.04.3-.12.08-.08.11-.18.11-.29h0c0-.1-.02-.17-.07-.24Z"/>
    </g>
    <path class="cls-2" d="M14.26,7.87c-.08-2.23-1.92-4.02-4.17-4.02h-4.08c-2.24,0-4.07,1.77-4.17,3.98,0,.06,0,.12,0,.19v.3c.08-.02.16-.04.24-.06.12-.01.19-.02.22-.02h1.38c.06,0,.12,0,.17,0,.08,0,.15.02.22.04v-.24c0-.07,0-.15.01-.21.12-1.08,1.16-1.47,2.06-1.47h3.81c.89,0,1.92.38,2.06,1.44.01.08.02.16.02.24v.23s.04,0,.07-.01c.02,0,.03,0,.05,0,.09,0,.15-.01.17-.01h1.38s.04,0,.06,0c.18,0,.35.04.51.1v-.32s0-.1,0-.15ZM13.69,7.78h-1.17c-.14-1.25-.9-1.96-2.57-1.93h-3.81c-1.67.02-2.43.67-2.57,1.93h-1.22s0-.02,0-.03c.13-1.89,1.72-3.4,3.65-3.4h4.08c1.92,0,3.52,1.51,3.65,3.4,0,0,0,.02,0,.03-.02,0-.04,0-.05,0Z"/>
  </g>
</svg>